<mxfile host="app.diagrams.net" modified="2023-10-06T07:55:20.942Z" agent="Mozilla/5.0 (Windows NT 10.0; Win64; x64) AppleWebKit/537.36 (KHTML, like Gecko) Chrome/116.0.0.0 Safari/537.36" etag="cUEo58XfARYNVCvG9xMw" version="22.0.3" type="github">
  <diagram name="Страница — 1" id="UBM8uuqGAXcxDV0GicOs">
    <mxGraphModel dx="1050" dy="542" grid="1" gridSize="10" guides="1" tooltips="1" connect="1" arrows="1" fold="1" page="1" pageScale="1" pageWidth="827" pageHeight="1169" math="0" shadow="0">
      <root>
        <mxCell id="0" />
        <mxCell id="1" parent="0" />
        <mxCell id="clbtRc7gnAqQqjOzCFej-1" value="Выполнение ремонтных работ" style="rounded=0;whiteSpace=wrap;html=1;" parent="1" vertex="1">
          <mxGeometry x="360" y="240" width="160" height="80" as="geometry" />
        </mxCell>
        <mxCell id="clbtRc7gnAqQqjOzCFej-2" value="" style="endArrow=classic;html=1;rounded=0;exitX=0;exitY=0.5;exitDx=0;exitDy=0;" parent="1" edge="1">
          <mxGeometry width="50" height="50" relative="1" as="geometry">
            <mxPoint x="439.5" y="520" as="sourcePoint" />
            <mxPoint x="439.5" y="320" as="targetPoint" />
          </mxGeometry>
        </mxCell>
        <mxCell id="clbtRc7gnAqQqjOzCFej-3" value="" style="endArrow=classic;html=1;rounded=0;exitX=0;exitY=0.5;exitDx=0;exitDy=0;" parent="1" edge="1">
          <mxGeometry width="50" height="50" relative="1" as="geometry">
            <mxPoint x="160" y="279.5" as="sourcePoint" />
            <mxPoint x="360" y="279.5" as="targetPoint" />
          </mxGeometry>
        </mxCell>
        <mxCell id="clbtRc7gnAqQqjOzCFej-6" value="Заказ клиента" style="edgeLabel;html=1;align=center;verticalAlign=middle;resizable=0;points=[];" parent="clbtRc7gnAqQqjOzCFej-3" vertex="1" connectable="0">
          <mxGeometry x="0.098" y="4" relative="1" as="geometry">
            <mxPoint x="-10" y="-6" as="offset" />
          </mxGeometry>
        </mxCell>
        <mxCell id="clbtRc7gnAqQqjOzCFej-4" value="" style="endArrow=classic;html=1;rounded=0;exitX=0;exitY=0.5;exitDx=0;exitDy=0;" parent="1" edge="1">
          <mxGeometry width="50" height="50" relative="1" as="geometry">
            <mxPoint x="520" y="279.5" as="sourcePoint" />
            <mxPoint x="720" y="279.5" as="targetPoint" />
          </mxGeometry>
        </mxCell>
        <mxCell id="clbtRc7gnAqQqjOzCFej-5" value="" style="endArrow=classic;html=1;rounded=0;" parent="1" edge="1">
          <mxGeometry width="50" height="50" relative="1" as="geometry">
            <mxPoint x="440" y="160" as="sourcePoint" />
            <mxPoint x="439.5" y="240" as="targetPoint" />
          </mxGeometry>
        </mxCell>
      </root>
    </mxGraphModel>
  </diagram>
</mxfile>
